<svg width="16" height="16" viewBox="0 0 16 16" fill="none" xmlns="http://www.w3.org/2000/svg">
<path d="M3.45312 4.11875C4.55 2.82812 6.17188 2 8 2C11.3156 2 14 4.68437 14 8H16C16 3.58125 12.4187 0 8 0C5.61875 0 3.49062 1.04375 2.02813 2.69375L0 0.665625V6H5.33437L3.45312 4.11875ZM12.5469 11.8813C11.4469 13.1719 9.82812 14 8 14C4.68437 14 2 11.3156 2 8H0C0 12.4187 3.58125 16 8 16C10.3813 16 12.5094 14.9562 13.9719 13.3062L16 15.3344V10H10.6656L12.5469 11.8813ZM6.66563 8C6.66563 8.7375 7.2625 9.33438 8 9.33438C8.7375 9.33438 9.33438 8.7375 9.33438 8C9.33438 7.2625 8.7375 6.66563 8 6.66563C7.2625 6.66563 6.66563 7.2625 6.66563 8Z" fill="#00529B"/>
</svg>
