<svg width="18" height="17" viewBox="0 0 18 17" fill="none" xmlns="http://www.w3.org/2000/svg">
<path d="M1.68612 0.771888H16.3139C16.5563 0.771888 16.7889 0.862247 16.9603 1.02309C17.1318 1.18393 17.2281 1.40208 17.2281 1.62954V2.98978C17.2281 3.21722 17.1317 3.43533 16.9602 3.59614L11.0954 9.09712C10.9243 9.25807 10.8283 9.47616 10.8285 9.70348V15.111C10.8285 15.2414 10.7968 15.37 10.7358 15.4872C10.6749 15.6043 10.5862 15.7069 10.4767 15.7871C10.3671 15.8673 10.2395 15.923 10.1036 15.95C9.9676 15.977 9.82687 15.9746 9.69207 15.9429L7.8636 15.5141C7.6659 15.4676 7.49042 15.3605 7.36503 15.2098C7.23964 15.0591 7.17153 14.8734 7.17153 14.6822V9.70348C7.17148 9.47604 7.07512 9.25793 6.90366 9.09712L1.03884 3.59614C0.867715 3.43519 0.771697 3.2171 0.771888 2.98978V1.62954C0.771888 1.40208 0.868209 1.18393 1.03966 1.02309C1.21111 0.862247 1.44365 0.771888 1.68612 0.771888Z" stroke="black" stroke-opacity="0.6" stroke-width="1.5" stroke-linecap="round" stroke-linejoin="round"/>
</svg>
