<svg width="16" height="16" viewBox="0 0 16 16" fill="none" xmlns="http://www.w3.org/2000/svg">
<g clip-path="url(#clip0_244_26)">
<path d="M14.9822 7.68444L8.31555 1.01778C8.23227 0.934998 8.11963 0.888535 8.00221 0.888535C7.8848 0.888535 7.77215 0.934998 7.68888 1.01778L1.02221 7.68444C0.949402 7.76947 0.911355 7.87883 0.915676 7.99069C0.919996 8.10254 0.966366 8.20865 1.04552 8.2878C1.12467 8.36696 1.23078 8.41333 1.34263 8.41765C1.45449 8.42197 1.56386 8.38392 1.64888 8.31111L7.99999 1.96L14.3511 8.31555C14.4361 8.38837 14.5455 8.42641 14.6573 8.42209C14.7692 8.41777 14.8753 8.3714 14.9545 8.29225C15.0336 8.2131 15.08 8.10699 15.0843 7.99513C15.0886 7.88328 15.0506 7.77391 14.9778 7.68889L14.9822 7.68444Z" fill="#00529B"/>
<path d="M12.4445 14.2222H10.2222V9.77778H5.7778V14.2222H3.55558V8L2.66669 8.88889V14.2222C2.66669 14.458 2.76034 14.6841 2.92704 14.8508C3.09374 15.0175 3.31983 15.1111 3.55558 15.1111H6.66669V10.6667H9.33335V15.1111H12.4445C12.6802 15.1111 12.9063 15.0175 13.073 14.8508C13.2397 14.6841 13.3334 14.458 13.3334 14.2222V8.78222L12.4445 7.89333V14.2222Z" fill="#00529B"/>
</g>
<defs>
<clipPath id="clip0_244_26">
<rect width="16" height="16" fill="white"/>
</clipPath>
</defs>
</svg>
