<svg width="15" height="15" viewBox="0 0 15 15" fill="none" xmlns="http://www.w3.org/2000/svg">
<path d="M15 14.0029L10.81 9.87554C11.8169 8.68484 12.319 7.15759 12.2118 5.61151C12.1047 4.06544 11.3966 2.61957 10.2348 1.57468C9.07298 0.5298 7.54695 -0.0336469 5.97416 0.0015555C4.40136 0.0367579 2.90289 0.667899 1.79046 1.76368C0.67804 2.85947 0.037316 4.33553 0.00157912 5.8848C-0.0341578 7.43408 0.537844 8.93728 1.59859 10.0817C2.65934 11.2261 4.12716 11.9237 5.69672 12.0292C7.26627 12.1347 8.8167 11.6401 10.0255 10.6483L14.2155 14.7757L15 14.0029ZM1.12948 6.0313C1.12948 5.05847 1.42234 4.10749 1.97102 3.29861C2.5197 2.48973 3.29956 1.85929 4.21198 1.487C5.12441 1.11472 6.12841 1.01731 7.09703 1.2071C8.06566 1.39689 8.95539 1.86535 9.65373 2.55325C10.3521 3.24114 10.8276 4.11757 11.0203 5.0717C11.213 6.02584 11.1141 7.01483 10.7362 7.9136C10.3582 8.81238 9.71821 9.58058 8.89705 10.1211C8.07589 10.6615 7.11047 10.95 6.12287 10.95C4.79899 10.9486 3.52976 10.4299 2.59363 9.50775C1.65751 8.58563 1.13095 7.33537 1.12948 6.0313Z" fill="black" fill-opacity="0.3"/>
</svg>
