<svg width="10" height="8" viewBox="0 0 10 8" fill="none" xmlns="http://www.w3.org/2000/svg">
<path d="M1.28274 7.75903L4.77724 4.48081C4.8532 4.40954 4.90714 4.33234 4.93905 4.24919C4.97095 4.16605 4.9864 4.07697 4.98539 3.98195C4.98539 3.88693 4.96943 3.79784 4.93753 3.7147C4.90562 3.63156 4.85194 3.55435 4.77648 3.48309L1.28198 0.204862C1.14271 0.0742086 0.96849 0.00603124 0.759327 0.000329977C0.550163 -0.00537128 0.369868 0.0628061 0.21844 0.204862C0.0791665 0.335516 0.00952995 0.501803 0.00952995 0.703723C0.00952995 0.905642 0.0791665 1.07193 0.21844 1.20258L3.16293 3.98195L0.2192 6.76131C0.079927 6.89196 0.00699862 7.0554 0.000414922 7.25162C-0.00616878 7.44784 0.0667596 7.61697 0.2192 7.75903C0.358474 7.88968 0.53573 7.95501 0.75097 7.95501C0.966212 7.95501 1.14347 7.88968 1.28274 7.75903ZM6.29658 7.75903L9.79108 4.48081C9.86705 4.40954 9.92098 4.33234 9.95289 4.24919C9.98479 4.16605 10.0005 4.07697 9.99999 3.98195C9.99999 3.88693 9.98404 3.79784 9.95213 3.7147C9.92022 3.63156 9.86654 3.55435 9.79108 3.48309L6.29658 0.204862C6.15731 0.0742086 5.98309 0.00603124 5.77393 0.000329977C5.56476 -0.00537128 5.38447 0.0628061 5.23304 0.204862C5.09377 0.335516 5.02413 0.501803 5.02413 0.703723C5.02413 0.905642 5.09377 1.07193 5.23304 1.20258L8.17677 3.98195L5.23304 6.76131C5.09377 6.89196 5.02084 7.0554 5.01426 7.25162C5.00767 7.44784 5.0806 7.61697 5.23304 7.75903C5.37231 7.88968 5.54957 7.95501 5.76481 7.95501C5.98005 7.95501 6.15731 7.88968 6.29658 7.75903Z" fill="black"/>
</svg>
