<svg width="10" height="8" viewBox="0 0 10 8" fill="none" xmlns="http://www.w3.org/2000/svg">
<path d="M8.71726 7.75903L5.22277 4.48081C5.1468 4.40954 5.09286 4.33234 5.06095 4.24919C5.02905 4.16605 5.0136 4.07697 5.01461 3.98195C5.01461 3.88693 5.03057 3.79784 5.06247 3.7147C5.09438 3.63156 5.14806 3.55435 5.22352 3.48309L8.71802 0.204863C8.85729 0.0742086 9.03151 0.00603124 9.24068 0.000329977C9.44984 -0.00537128 9.63014 0.0628061 9.78156 0.204863C9.92084 0.335516 9.99047 0.501803 9.99047 0.703723C9.99047 0.905643 9.92084 1.07193 9.78156 1.20258L6.83707 3.98195L9.7808 6.76131C9.92008 6.89197 9.99301 7.0554 9.99959 7.25162C10.0062 7.44784 9.93324 7.61698 9.7808 7.75903C9.64153 7.88969 9.46427 7.95501 9.24903 7.95501C9.03379 7.95501 8.85653 7.88969 8.71726 7.75903ZM3.70342 7.75903L0.208922 4.48081C0.132954 4.40954 0.0790177 4.33234 0.0471115 4.24919C0.0152052 4.16605 -0.000494579 4.07697 1.187e-05 3.98195C1.187e-05 3.88693 0.0159648 3.79784 0.0478711 3.7147C0.0797773 3.63156 0.133461 3.55435 0.208922 3.48309L3.70342 0.204863C3.84269 0.0742086 4.01691 0.00603124 4.22607 0.000329977C4.43524 -0.00537128 4.61553 0.0628061 4.76696 0.204863C4.90623 0.335516 4.97587 0.501803 4.97587 0.703723C4.97587 0.905643 4.90623 1.07193 4.76696 1.20258L1.82323 3.98195L4.76696 6.76131C4.90623 6.89197 4.97916 7.0554 4.98575 7.25162C4.99233 7.44784 4.9194 7.61698 4.76696 7.75903C4.62769 7.88969 4.45043 7.95501 4.23519 7.95501C4.01995 7.95501 3.84269 7.88969 3.70342 7.75903Z" fill="black"/>
</svg>
